PathFileType	4	(X/Y/Z)	Walk5.trc
DataRate	CameraRate	NumFrames	NumMarkers	Units	OrigDataRate	OrigDataStartFrame	OrigNumFrames
200.000000	200.000000	9	61	mm	200.000000	454	487
Frame#	Times		LFHD		RFHD		CLAV		LASI		RASI		RACR1		RUA1		RFA1		RWRU		RCAR		LACR1		LUA1		LWRU		LCAR		RTH3		LTH1		LTH3		LTH2		LTH4		LLFC		LTB1		LTB2		LTB4		LFA1		RTB1		LToe		LTB3		STRN		RTB4		RWRR		RTB3		RMFC		RMT5		RTH2		LBHD		RMT1		RTB2		LElbow		RLFC		RMMAL		LMFC		RTH4		RToe		LWRR		T10		RElbow		RTH1		LPSI		RBack		RBHD		LMT5		RLMAL		RCAL		RPSI		LElbowM		LMMAL		RElbowM		LCAL		LLMAL		LMT1		C7
			X1	Y1	Z1	X2	Y2	Z2	X3	Y3	Z3	X4	Y4	Z4	X5	Y5	Z5	X6	Y6	Z6	X7	Y7	Z7	X8	Y8	Z8	X9	Y9	Z9	X10	Y10	Z10	X11	Y11	Z11	X12	Y12	Z12	X13	Y13	Z13	X14	Y14	Z14	X15	Y15	Z15	X16	Y16	Z16	X17	Y17	Z17	X18	Y18	Z18	X19	Y19	Z19	X20	Y20	Z20	X21	Y21	Z21	X22	Y22	Z22	X23	Y23	Z23	X24	Y24	Z24	X25	Y25	Z25	X26	Y26	Z26	X27	Y27	Z27	X28	Y28	Z28	X29	Y29	Z29	X30	Y30	Z30	X31	Y31	Z31	X32	Y32	Z32	X33	Y33	Z33	X34	Y34	Z34	X35	Y35	Z35	X36	Y36	Z36	X37	Y37	Z37	X38	Y38	Z38	X39	Y39	Z39	X40	Y40	Z40	X41	Y41	Z41	X42	Y42	Z42	X43	Y43	Z43	X44	Y44	Z44	X45	Y45	Z45	X46	Y46	Z46	X47	Y47	Z47	X48	Y48	Z48	X49	Y49	Z49	X50	Y50	Z50	X51	Y51	Z51	X52	Y52	Z52	X53	Y53	Z53	X54	Y54	Z54	X55	Y55	Z55	X56	Y56	Z56	X57	Y57	Z57	X58	Y58	Z58	X59	Y59	Z59	X60	Y60	Z60	X61	Y61	Z61

454	2.27	1423.1	1603.3	-62.409	1416.1	1605.9	36.934	1386.5	1329.4	-13.057	1374.5	917.36	-116.23	1364.5	932.33	130.23	1308.1	1364.2	149.16	1303.9	1194.7	205.35	1327.7	907.47	271.68	1380.3	790.6	250.54	1359.8	724.21	297.2	1316.9	1375.5	-166.99	1308.8	1205.6	-236.97	1462.5	848.47	-292.92	1461.4	778.07	-325.31	1414.7	608.14	174.13	1321.2	745.88	-178.14	1299.3	579.36	-143.35	1363	662.2	-134.67	1308.5	661.06	-161.92	1274.6	438.86	-117.05	1292.8	339.47	-45.67	1258.3	253.38	-97.804	1268.8	256.74	-37.606	1367.3	927.91	-298.75	1443.1	355.9	123.22	1375.8	25.957	-19.627	1250.6	174.82	-28.124	1413	1198.1	-3.9405	1398.5	281.69	114.86	1317.5	785.49	278.31	1354.6	208.52	104.09	1459.5	461.66	23.542	1332.7	54.781	130.58	1432.1	712.33	172.16	1285.1	1532.8	-93.67	1379.2	57.18	58.347	1354	305.25	149.93	1294.9	1050.2	-270.36	1461.1	469.03	152.13	1286.6	143.63	33.251	1237.8	438.54	11.415	1381.9	685.32	189.04	1420.7	44.897	100.09	1402.9	814.92	-284.82	1201.4	1212.3	-14.671	1291.3	1030.2	239.29	1348.6	763.85	206.33	1198.7	974.55	-53.113	1195.6	1300.1	54.235	1276.6	1542.7	51.795	1287.2	24.355	-76.368	1255.4	134.25	110.62	1204.6	125.23	59.433	1196.5	968.76	47.695	1285.7	1025.8	-197.21	1195.1	90.987	12.565	1269.2	1023	163.38	1125.3	45.41	-27.256	1183.9	69.351	-67.797	1317.5	30.524	7.2995	1269.9	1426.1	-16.299
455	2.275	1430.8	1603	-62.082	1423.8	1605.5	37.258	1393.9	1329.2	-12.951	1381.5	916.92	-116.13	1372.2	932.26	130.36	1315.1	1363.9	149.17	1310.3	1194.4	205.49	1332.5	907.28	272.34	1384.4	790.01	251.79	1363.2	723.8	298.41	1324.5	1375.6	-166.91	1317.4	1205.8	-237.34	1478.4	852.88	-291.95	1479.8	782.34	-324.04	1424.5	609.15	174.32	1326.6	745.72	-177.89	1302.6	579.52	-143.18	1367.2	661.47	-134.31	1312.9	661.1	-161.67	1276	439.24	-117.15	1293.9	339.7	-45.769	1259.1	253.76	-97.842	1269.7	257.1	-37.653	1381	929.67	-298.89	1457.4	356.98	123.55	1376	25.88	-19.702	1251.2	175.22	-28.136	1420.3	1197.9	-4.0301	1415.4	281.27	115.33	1321.4	785.31	279.1	1374.2	206.64	104.68	1470.5	463.27	23.861	1357.6	52.398	131.5	1440.9	713.48	172.99	1292.7	1532.7	-93.506	1404.1	56.366	59.271	1370.3	303.27	150.47	1305.3	1050.3	-271.18	1472.2	470.5	152.21	1308.5	139.3	33.995	1239.3	439.12	11.434	1391	685.95	189.46	1445.9	45.606	101.03	1419.6	817.65	-284.7	1208.8	1212.1	-14.796	1297	1030.1	239.51	1356.9	764.07	207	1206	974.4	-52.642	1202.9	1299.8	53.908	1284.2	1542.5	51.972	1287.3	24.389	-76.281	1277.6	128.95	111.42	1227.2	118.13	60.12	1204	968.58	48.166	1295.8	1025.7	-198.25	1195.5	91.567	12.682	1275.6	1022.8	163.56	1125.4	46.209	-26.97	1184	69.958	-67.601	1317.6	30.509	7.2853	1277.3	1425.7	-16.444
456	2.28	1438.5	1602.6	-61.773	1431.5	1605	37.564	1401.3	1328.9	-12.839	1388.5	916.41	-116.06	1380	932.04	130.47	1322.1	1363.6	149.19	1316.7	1194.1	205.66	1337.4	907.03	273.01	1388.7	789.37	253.06	1366.8	723.34	299.62	1332.2	1375.5	-166.82	1326.1	1205.9	-237.7	1494.1	857.31	-290.88	1498	786.72	-322.68	1434.2	609.97	174.46	1331.9	745.54	-177.7	1305.9	579.67	-143.04	1371.4	660.74	-134.07	1317.2	661.11	-161.49	1277.4	439.63	-117.28	1295	339.91	-45.882	1259.8	254.15	-97.894	1270.6	257.47	-37.712	1394.7	931.44	-299	1471.5	358	123.83	1376.2	25.79	-19.778	1251.9	175.64	-28.16	1427.8	1197.6	-4.1089	1432.3	280.87	115.77	1325.4	785.06	279.9	1393.8	204.83	105.28	1481.1	464.71	24.162	1382.7	50.249	132.43	1449.7	714.43	173.8	1300.4	1532.5	-93.362	1429.1	55.803	60.168	1386.7	301.24	151.03	1315.6	1050.3	-272	1483.1	471.77	152.26	1330.6	135.11	34.765	1240.9	439.71	11.452	1399.9	686.4	189.86	1471.1	46.57	101.93	1436.2	820.43	-284.57	1216.2	1211.8	-14.888	1302.8	1029.9	239.75	1365	764.14	207.67	1213.2	974.15	-52.112	1210.2	1299.4	53.603	1291.8	1542.1	52.13	1287.3	24.428	-76.195	1300	123.77	112.26	1250.1	111.16	60.874	1211.6	968.29	48.693	1305.9	1025.4	-199.3	1195.8	92.17	12.789	1281.9	1022.5	163.76	1125.6	47.04	-26.684	1184.2	70.589	-67.41	1317.7	30.49	7.2714	1284.8	1425.2	-16.589
457	2.285	1446.2	1602.2	-61.48	1439.1	1604.5	37.853	1408.8	1328.5	-12.719	1395.4	915.82	-116.03	1387.8	931.68	130.57	1329.2	1363.1	149.22	1323.1	1193.6	205.86	1342.3	906.7	273.7	1393.1	788.69	254.33	1370.4	722.84	300.83	1340	1375.3	-166.72	1334.8	1205.9	-238.04	1509.6	861.75	-289.73	1515.9	791.19	-321.24	1443.7	610.61	174.57	1337.1	745.32	-177.56	1309.2	579.8	-142.92	1375.6	660	-133.92	1321.5	661.1	-161.36	1278.9	440.02	-117.41	1296.3	340.12	-46.007	1260.7	254.54	-97.958	1271.5	257.83	-37.782	1408.3	933.23	-299.08	1485.5	358.97	124.08	1376.3	25.684	-19.85	1252.6	176.06	-28.195	1435.2	1197.2	-4.1712	1449.2	280.49	116.2	1329.5	784.74	280.71	1413.4	203.12	105.87	1491.4	465.96	24.444	1407.9	48.368	133.35	1458.3	715.17	174.59	1308	1532.2	-93.237	1454.1	55.518	61.037	1403	299.17	151.62	1326	1050.3	-272.82	1493.8	472.86	152.28	1352.9	131.08	35.557	1242.7	440.31	11.472	1408.7	686.66	190.24	1496.3	47.817	102.78	1452.5	823.26	-284.42	1223.6	1211.4	-14.945	1308.6	1029.6	240.01	1373.2	764.06	208.34	1220.4	973.81	-51.518	1217.5	1298.9	53.324	1299.4	1541.7	52.271	1287.3	24.469	-76.107	1322.7	118.75	113.14	1273.2	104.36	61.69	1219.1	967.9	49.28	1316	1025	-200.38	1196.2	92.794	12.887	1288.3	1022	163.99	1125.7	47.905	-26.399	1184.3	71.243	-67.228	1317.8	30.467	7.2598	1292.4	1424.7	-16.731
458	2.29	1453.9	1601.7	-61.204	1446.8	1603.9	38.125	1416.3	1328	-12.593	1402.4	915.16	-116.03	1395.6	931.18	130.65	1336.4	1362.5	149.26	1329.4	1193.1	206.08	1347.2	906.3	274.4	1397.5	787.97	255.6	1374.1	722.29	302.03	1347.8	1375	-166.61	1343.5	1205.8	-238.36	1524.9	866.18	-288.5	1533.7	795.74	-319.72	1453	611.05	174.64	1342.3	745.07	-177.49	1312.5	579.92	-142.83	1379.7	659.26	-133.89	1325.8	661.07	-161.29	1280.5	440.4	-117.56	1297.6	340.31	-46.139	1261.6	254.94	-98.032	1272.5	258.19	-37.86	1421.9	935.02	-299.12	1499.3	359.91	124.29	1376.4	25.563	-19.916	1253.3	176.48	-28.24	1442.7	1196.6	-4.2118	1466	280.16	116.6	1333.6	784.37	281.52	1433.1	201.55	106.46	1501.3	467.01	24.707	1433.2	46.789	134.27	1466.9	715.7	175.36	1315.7	1531.7	-93.129	1479.2	55.536	61.876	1419.4	297.08	152.23	1336.5	1050.2	-273.62	1504.2	473.75	152.29	1375.3	127.25	36.365	1244.7	440.89	11.499	1417.5	686.75	190.58	1521.5	49.372	103.58	1468.7	826.11	-284.25	1231	1211	-14.966	1314.5	1029.2	240.3	1381.3	763.81	209.01	1227.6	973.38	-50.859	1224.9	1298.4	53.076	1307	1541.1	52.396	1287.3	24.51	-76.017	1345.6	113.91	114.04	1296.7	97.746	62.563	1226.6	967.41	49.927	1326.1	1024.5	-201.47	1196.6	93.436	12.976	1294.8	1021.5	164.24	1125.8	48.803	-26.115	1184.4	71.92	-67.054	1317.9	30.438	7.2515	1300	1424.1	-16.871
459	2.295	1461.6	1601.1	-60.943	1454.4	1603.2	38.382	1423.8	1327.4	-12.459	1409.2	914.44	-116.07	1403.5	930.55	130.71	1343.6	1361.9	149.32	1335.8	1192.6	206.32	1352.2	905.84	275.11	1402	787.21	256.87	1377.9	721.7	303.23	1355.6	1374.6	-166.49	1352.3	1205.5	-238.65	1540	870.59	-287.19	1551.2	800.36	-318.14	1462.1	611.29	174.66	1347.4	744.79	-177.46	1315.8	580.02	-142.77	1383.8	658.52	-133.96	1330	661.02	-161.28	1282.2	440.78	-117.71	1299	340.49	-46.274	1262.5	255.33	-98.114	1273.6	258.55	-37.945	1435.3	936.82	-299.13	1512.9	360.81	124.47	1376.5	25.431	-19.975	1254	176.9	-28.293	1450.2	1195.9	-4.2263	1482.7	279.9	116.99	1337.9	783.94	282.34	1452.8	200.13	107.05	1510.9	467.85	24.954	1458.6	45.544	135.18	1475.4	716	176.1	1323.4	1531.2	-93.037	1504.3	55.882	62.683	1435.8	295	152.86	1346.9	1050	-274.41	1514.4	474.46	152.29	1397.8	123.64	37.184	1246.9	441.46	11.534	1426.1	686.66	190.91	1546.6	51.259	104.33	1484.8	829	-284.04	1238.5	1210.5	-14.951	1320.3	1028.8	240.6	1389.4	763.41	209.68	1234.8	972.85	-50.133	1232.3	1297.8	52.864	1314.6	1540.4	52.508	1287.3	24.551	-75.924	1368.7	109.3	114.96	1320.4	91.373	63.485	1234.2	966.82	50.636	1336.2	1023.9	-202.56	1197	94.094	13.06	1301.2	1020.8	164.51	1126	49.734	-25.834	1184.6	72.618	-66.889	1318	30.405	7.2468	1307.6	1423.5	-17.01
460	2.3	1469.3	1600.4	-60.696	1462	1602.5	38.624	1431.4	1326.7	-12.317	1416.1	913.66	-116.14	1411.5	929.8	130.75	1350.9	1361.2	149.38	1342.2	1192	206.59	1357.3	905.32	275.84	1406.6	786.41	258.14	1381.9	721.08	304.43	1363.5	1374.2	-166.35	1361.2	1205.2	-238.91	1554.9	874.98	-285.81	1568.5	805.04	-316.51	1471.1	611.33	174.64	1352.4	744.48	-177.47	1319.1	580.11	-142.73	1388	657.79	-134.12	1334.3	660.95	-161.32	1284	441.14	-117.85	1300.5	340.64	-46.409	1263.5	255.71	-98.202	1274.8	258.89	-38.033	1448.8	938.62	-299.1	1526.4	361.7	124.64	1376.6	25.29	-20.027	1254.8	177.31	-28.356	1457.7	1195.1	-4.2111	1499.3	279.71	117.37	1342.3	783.45	283.17	1472.5	198.89	107.64	1520.2	468.47	25.183	1484	44.659	136.08	1483.7	716.08	176.81	1331.2	1530.5	-92.958	1529.3	56.578	63.455	1452.2	292.97	153.51	1357.4	1049.7	-275.19	1524.4	474.98	152.29	1420.4	120.3	38.009	1249.2	442.02	11.583	1434.5	686.38	191.22	1571.7	53.497	105.02	1500.6	831.9	-283.8	1246	1209.9	-14.898	1326.2	1028.3	240.93	1397.5	762.86	210.34	1241.9	972.24	-49.338	1239.8	1297.1	52.691	1322.3	1539.7	52.609	1287.3	24.589	-75.825	1392	104.95	115.89	1344.3	85.273	64.451	1241.8	966.13	51.409	1346.4	1023.2	-203.65	1197.5	94.764	13.14	1307.6	1020.1	164.79	1126.2	50.698	-25.556	1184.8	73.336	-66.733	1318	30.368	7.2452	1315.3	1422.8	-17.146
461	2.305	1477	1599.7	-60.463	1469.6	1601.8	38.853	1439.1	1325.9	-12.167	1423	912.83	-116.24	1419.5	928.93	130.77	1358.3	1360.5	149.46	1348.6	1191.3	206.88	1362.5	904.75	276.58	1411.3	785.57	259.41	1385.9	720.42	305.62	1371.4	1373.6	-166.19	1370.1	1204.8	-239.14	1569.5	879.33	-284.37	1585.4	809.75	-314.82	1479.9	611.16	174.59	1357.4	744.15	-177.53	1322.4	580.17	-142.7	1392.1	657.06	-134.39	1338.5	660.86	-161.39	1285.9	441.49	-118	1302.1	340.77	-46.537	1264.6	256.09	-98.293	1276	259.21	-38.124	1462.1	940.43	-299.04	1539.8	362.56	124.8	1376.7	25.145	-20.075	1255.6	177.71	-28.425	1465.2	1194.2	-4.1636	1515.8	279.62	117.74	1346.7	782.93	284.01	1492.1	197.85	108.23	1529.2	468.85	25.397	1509.5	44.16	136.96	1492	715.93	177.5	1338.9	1529.8	-92.89	1554.3	57.64	64.188	1468.6	290.99	154.18	1367.9	1049.4	-275.93	1534.1	475.32	152.29	1443	117.24	38.836	1251.7	442.54	11.647	1442.9	685.92	191.51	1596.6	56.105	105.64	1516.2	834.81	-283.51	1253.5	1209.2	-14.809	1332.2	1027.7	241.28	1405.5	762.16	211.01	1249.1	971.54	-48.473	1247.4	1296.4	52.559	1329.9	1538.8	52.701	1287.2	24.625	-75.72	1415.4	100.89	116.82	1368.3	79.481	65.452	1249.4	965.36	52.244	1356.6	1022.4	-204.72	1197.9	95.446	13.216	1314.1	1019.3	165.08	1126.3	51.696	-25.282	1185	74.073	-66.585	1318.1	30.328	7.2463	1323	1422.1	-17.277
462	2.31	1484.6	1599	-60.241	1477.2	1601	39.069	1446.7	1325	-12.009	1429.8	911.96	-116.37	1427.5	927.96	130.77	1365.7	1359.6	149.55	1355	1190.6	207.19	1367.7	904.14	277.32	1416.1	784.7	260.68	1390.1	719.72	306.81	1379.3	1373	-166.02	1379	1204.3	-239.33	1583.9	883.63	-282.87	1602.1	814.49	-313.1	1488.4	610.78	174.52	1362.4	743.8	-177.62	1325.8	580.2	-142.69	1396.3	656.33	-134.73	1342.8	660.75	-161.5	1288	441.81	-118.13	1303.8	340.88	-46.656	1265.7	256.45	-98.387	1277.2	259.51	-38.217	1475.3	942.23	-298.94	1552.9	363.41	124.96	1376.7	25	-20.117	1256.5	178.11	-28.5	1472.7	1193.2	-4.0826	1532.2	279.63	118.1	1351.3	782.35	284.86	1511.7	197.02	108.81	1537.8	468.99	25.596	1534.9	44.063	137.82	1500.2	715.55	178.16	1346.7	1528.9	-92.828	1579.1	59.082	64.877	1485	289.11	154.86	1378.5	1049.1	-276.65	1543.7	475.48	152.29	1465.7	114.49	39.658	1254.3	443.04	11.729	1451.2	685.29	191.79	1621.4	59.094	106.2	1531.6	837.74	-283.17	1261	1208.6	-14.685	1338.1	1027.1	241.65	1413.5	761.32	211.67	1256.2	970.77	-47.54	1255	1295.6	52.472	1337.6	1537.9	52.788	1287.2	24.656	-75.61	1438.8	97.167	117.76	1392.5	74.027	66.482	1257	964.5	53.14	1366.8	1021.5	-205.76	1198.4	96.136	13.291	1320.6	1018.5	165.38	1126.5	52.727	-25.013	1185.2	74.829	-66.446	1318.2	30.288	7.2498	1330.8	1421.3	-17.399
